<svg xmlns="http://www.w3.org/2000/svg" width="16" height="25" viewBox="0 0 16 25">
    <g fill="none" fill-rule="evenodd">
        <path fill="#47474F" d="M0 2h14v16H0z"/>
        <path fill="#FCAC0D" d="M13.072 7.666l-2.755 2.002 1.052 3.238a.52.52 0 0 1-.802.582l-2.755-2-2.755 2a.521.521 0 1 1-.802-.582l1.052-3.238-2.754-2.002a.522.522 0 0 1 .306-.942h3.407l1.052-3.239c.14-.429.85-.429.99 0L9.36 6.724h3.407a.522.522 0 0 1 .305.942M.52 0A.521.521 0 0 0 0 .52V24.48a.52.52 0 0 0 .89.369l6.922-6.924 6.923 6.923a.522.522 0 0 0 .89-.368V.521a.521.521 0 0 0-.52-.521H.52z"/>
    </g>
</svg>
