<svg xmlns="http://www.w3.org/2000/svg" xmlns:xlink="http://www.w3.org/1999/xlink" width="24" height="24" viewBox="0 0 24 24">
    <defs>
        <path id="a" d="M4.5 8.377L1.373 5.25.308 6.308 4.5 10.5l9-9L12.443.442z"/>
    </defs>
    <g fill="none" fill-rule="evenodd">
        <path fill="#26272C" fill-rule="nonzero" d="M2 1a1 1 0 0 0-1 1v20a1 1 0 0 0 1 1h20a1 1 0 0 0 1-1V2a1 1 0 0 0-1-1H2zm0-1h20a2 2 0 0 1 2 2v20a2 2 0 0 1-2 2H2a2 2 0 0 1-2-2V2a2 2 0 0 1 2-2z"/>
        <g transform="translate(5.25 6.75)">
            <mask id="b" fill="#fff">
                <use xlink:href="#a"/>
            </mask>
            <use fill-rule="nonzero" stroke="#333" xlink:href="#a"/>
            <g fill="#0A0203" fill-rule="nonzero" mask="url(#b)">
                <path d="M-2.25-3.75h18v18h-18z"/>
            </g>
        </g>
    </g>
</svg>
