<svg xmlns="http://www.w3.org/2000/svg" xmlns:xlink="http://www.w3.org/1999/xlink" width="14" height="14" viewBox="0 0 14 14">
    <defs>
        <path id="a" d="M.002 0h11.665v8.75H.002z"/>
    </defs>
    <g fill="none" fill-rule="evenodd">
        <path d="M0 0h14v14H0z"/>
        <mask id="b" fill="#fff">
            <use xlink:href="#a"/>
        </mask>
        <path fill="#FFF" d="M4.667 8.75H.875A.875.875 0 0 1 0 7.875v-7C0 .392.392 0 .875 0h9.917c.483 0 .875.392.875.875v5.25h-.584V.875a.292.292 0 0 0-.291-.292H.875a.292.292 0 0 0-.292.292v7c0 .161.13.292.292.292h3.792v.583" mask="url(#b)"/>
        <path fill="#FFF" d="M3.5 10.208h.583v-1.75H3.5zM2.625 7.583h-.583a.875.875 0 0 1-.875-.875v-.583h.583v.583c0 .161.13.292.292.292h.583v.583M1.167 5.542h.583v-.584h-.583z"/>
        <g fill="#FFF">
            <path d="M8.419 5.833a2.586 2.586 0 1 0-.002 5.172 2.586 2.586 0 0 0 .002-5.172zm0 5.755a3.169 3.169 0 1 1 0-6.338 3.169 3.169 0 0 1 0 6.338zM11.476 11.877l1.419 1.419.4-.401-1.417-1.42-.402.402zM12.895 14a.292.292 0 0 1-.207-.085l-1.83-1.832a.292.292 0 0 1 0-.412l.813-.814a.292.292 0 0 1 .413 0l1.83 1.83a.292.292 0 0 1 0 .413l-.813.814a.292.292 0 0 1-.206.086z"/>
        </g>
        <path fill="#FFF" d="M10.247 10.66l.413-.413 1.017 1.017-.413.413-1.017-1.018M10.5 8.458h-.583A1.46 1.46 0 0 0 8.458 7v-.583A2.044 2.044 0 0 1 10.5 8.458M2.917 10.5H5.25v-.583H2.917zM4.375 1.75a.292.292 0 1 0 0 .583.292.292 0 0 0 0-.583zm0 1.167a.875.875 0 1 1 0-1.75.875.875 0 0 1 0 1.75zM6.417 3.792a.292.292 0 1 0 0 .583.292.292 0 0 0 0-.583zm0 1.166a.875.875 0 1 1 0-1.75.875.875 0 0 1 0 1.75z"/>
        <path fill="#FFF" d="M2.419 3.586l1.458-1.459.413.413L2.83 3.998l-.412-.412M4.46 2.54l.412-.412L6.33 3.586 5.918 4 4.459 2.54M8.458 1.75a.292.292 0 1 0 0 .583.292.292 0 0 0 0-.583zm0 1.167a.875.875 0 1 1 0-1.75.875.875 0 0 1 0 1.75z"/>
        <path fill="#FFF" d="M6.502 3.587L7.96 2.128l.413.413-1.459 1.458-.412-.412"/>
    </g>
</svg>
