<svg xmlns="http://www.w3.org/2000/svg" width="18" height="18" viewBox="0 0 18 18">
    <path fill="#D85555" fill-rule="evenodd" d="M10.437 9.507a.407.407 0 0 1-.297.167.373.373 0 0 1-.313-.114L8.496 8.237l-2.484 3.502 1.49-.309c.22-.044.443.115.484.358.045.246-.101.484-.33.529l-2.475.511c-.024.01-.053.01-.077.01a.378.378 0 0 1-.245-.084.477.477 0 0 1-.171-.309l-.321-2.7a.443.443 0 0 1 .358-.507c.223-.031.436.141.468.392l.184 1.527 2.732-3.863a.426.426 0 0 1 .293-.179.416.416 0 0 1 .318.121l1.339 1.324 3.196-4.43a.393.393 0 0 1 .583-.08.477.477 0 0 1 .073.635l-3.474 4.822zM2 13.892v-1.73 1.73zm0-2.634V9.53v1.728zm0-2.633V6.892v1.733zm0-2.633V4.258v1.734zm0-2.638v-.905C2 2.203 2.188 2 2.416 2c.231 0 .415.203.415.45V15.1h11.677c.228 0 .416.203.416.45 0 .251-.188.45-.416.45H2.416C2.188 16 2 15.801 2 15.55V3.355z"/>
</svg>
