<svg xmlns="http://www.w3.org/2000/svg" xmlns:xlink="http://www.w3.org/1999/xlink" width="24" height="24" viewBox="0 0 24 24">
    <defs>
        <circle id="a" cx="11" cy="11" r="11"/>
    </defs>
    <g fill="none" fill-rule="evenodd">
        <g transform="translate(1 1)">
            <mask id="b" fill="#fff">
                <use xlink:href="#a"/>
            </mask>
            <use fill="#000" xlink:href="#a"/>
            <g fill="#A6A8AB" mask="url(#b)">
                <path d="M-1-1h24v24H-1z"/>
            </g>
        </g>
        <path fill="#FFF" d="M11.258 15.397v-1.106c0-.295.017-.546.05-.754a1.85 1.85 0 0 1 .181-.563c.087-.168.201-.329.342-.483.14-.154.312-.338.513-.553l1.548-1.569c.335-.335.503-.77.503-1.307 0-.523-.17-.948-.513-1.277-.342-.328-.774-.492-1.297-.492-.563 0-1.025.19-1.387.573-.362.382-.57.848-.624 1.397L8 9.063c.08-.644.248-1.217.503-1.72.254-.503.586-.929.995-1.277a4.262 4.262 0 0 1 1.418-.795A5.506 5.506 0 0 1 12.686 5c.603 0 1.163.087 1.679.261a4.01 4.01 0 0 1 1.347.755c.382.328.68.737.895 1.226.215.49.322 1.05.322 1.68 0 .442-.06.83-.181 1.166-.12.335-.282.643-.483.925-.2.281-.432.55-.694.804-.261.255-.54.523-.834.805-.188.174-.349.328-.483.462a2.295 2.295 0 0 0-.332.413c-.087.14-.15.301-.19.482-.04.181-.06.399-.06.654v.764h-2.414zm-.402 2.795c0-.429.157-.797.472-1.106a1.566 1.566 0 0 1 1.136-.462c.43 0 .805.147 1.127.442.321.295.482.657.482 1.086 0 .43-.157.798-.472 1.106a1.566 1.566 0 0 1-1.137.463c-.214 0-.419-.04-.613-.121a1.75 1.75 0 0 1-.513-.322 1.495 1.495 0 0 1-.352-.482 1.415 1.415 0 0 1-.13-.604z"/>
    </g>
</svg>
