<svg xmlns="http://www.w3.org/2000/svg" width="14" height="14" viewBox="0 0 14 14">
    <g fill="none" fill-rule="evenodd">
        <path d="M.933 0H14v13.067H.933z"/>
        <g fill="#FFF">
            <path d="M6.998 2.168c1.726 0 3.13 1.31 3.13 2.92a2.836 2.836 0 0 1-1.8 2.687l-.097.052a.242.242 0 0 0-.09.086l-.315.517H7.72V6.603l1.134-1.134-.34-.34-1.205 1.204a.241.241 0 0 0-.07.17V8.43h-.482V6.503a.24.24 0 0 0-.07-.17L5.481 5.129l-.34.34 1.133 1.134V8.43h-.106l-.315-.517a.242.242 0 0 0-.09-.086l-.097-.052a2.836 2.836 0 0 1-1.801-2.686c0-1.611 1.405-2.921 3.132-2.921zm.963 7.226H6.034a.24.24 0 0 1 0-.482h1.927a.24.24 0 0 1 0 .482zm0 .963H6.034a.24.24 0 0 1 0-.482h1.927a.24.24 0 0 1 0 .482zM5.449 8.204l.028.015.191.314a.714.714 0 0 0-.169 1.101.72.72 0 0 0 .535 1.205h1.927a.72.72 0 0 0 .535-1.205.714.714 0 0 0-.169-1.1l.191-.315.028-.015a3.31 3.31 0 0 0 2.064-3.116c0-1.876-1.62-3.402-3.612-3.402-1.993 0-3.613 1.526-3.613 3.402a3.31 3.31 0 0 0 2.064 3.116zM1.832 2.142l.215-.43 1.445.722-.215.43-1.445-.722M10.446 2.316l1.532-.512.153.457-1.533.512-.152-.457M.976 5.317h1.445v-.5H.976zM11.574 5.317h1.445v-.5h-1.445zM1.832 8.455l1.445-.722.215.43-1.445.723-.215-.43M10.503 8.164l.215-.43 1.445.722-.215.43-1.445-.722M6.757 1.204h.5V.001h-.5z"/>
            <path d="M13.982 11.32v-.481c-3.142 0-6.481.76-6.503 2.167h-.963C6.494 11.598 3.155 10.84.013 10.84v.481c3.528 0 5.992.886 6.02 1.686H.013v.482h13.97v-.482h-6.02c.027-.8 2.49-1.686 6.02-1.686"/>
            <path d="M0 12.524l.025-.48 4.578.24-.026.481L0 12.525M9.393 12.285l4.578-.242.025.48-4.577.243-.026-.481"/>
        </g>
    </g>
</svg>
