<svg xmlns="http://www.w3.org/2000/svg" width="24" height="24" viewBox="0 0 24 24">
    <g fill="#FFBC12" fill-rule="nonzero">
        <path d="M4.709 13.571H2v6.733l1.923-1.835C5.807 21.211 8.902 23 12.39 23c5.304 0 9.674-4.117 10.316-9.429H20.08c-.616 3.821-3.826 6.733-7.69 6.733-2.733 0-5.145-1.46-6.533-3.674l3.21-3.059H4.71zM12.307 1C7.012 1 2.633 5.108 2 10.429h2.626C5.241 6.6 8.45 3.696 12.307 3.696c2.825 0 5.291 1.545 6.662 3.871l-2.76 2.862h6.497V3.696l-1.86 1.926C18.97 2.828 15.841 1 12.307 1z"/>
    </g>
</svg>
