<svg xmlns="http://www.w3.org/2000/svg" width="18" height="18" viewBox="0 0 18 18">
    <path fill="#2DC1B7" fill-rule="evenodd" d="M8.121 7.04a.43.43 0 0 1 .307-.16.404.404 0 0 1 .324.11l1.376 1.262 2.566-3.341-1.54.295a.431.431 0 0 1-.5-.341.425.425 0 0 1 .34-.504l2.558-.488c.025-.009.055-.009.08-.009.092 0 .18.025.253.08.096.071.16.177.177.294l.331 2.575a.427.427 0 0 1-.37.483.436.436 0 0 1-.484-.373l-.19-1.456-2.822 3.684a.448.448 0 0 1-.303.17.45.45 0 0 1-.328-.115L8.512 7.944 5.21 12.168a.43.43 0 0 1-.677-.53L8.12 7.04zM2 13.341v-1.649 1.65zm0-2.511V9.18v1.65zm0-2.512V6.665v1.653zm0-2.511V4.154v1.653zM2 3.29V2.43a.428.428 0 1 1 .858 0v12.064h12.065a.429.429 0 1 1 0 .858H2.43a.429.429 0 0 1-.43-.428V3.291z"/>
</svg>
